<svg xmlns="http://www.w3.org/2000/svg" width="56.899" height="52.553" viewBox="0 0 56.899 52.553"><defs><style>.a{fill:#f0f7ff;}.b{fill:#dfe7f4;}.c{fill:#c7cfe1;}.d{fill:#ff5f96;}.e{fill:#ff8fb8;}</style></defs><g transform="translate(0 -19.552)"><g transform="translate(6.576 46.172)"><path class="a" d="M66.728,259.091l-7.535,7.568L71,278.428l7.535-7.535Z" transform="translate(-59.171 -259.091)"/></g><path class="b" d="M118.306,325.626l7.535-7.535-5.9-5.9-7.543,7.543Z" transform="translate(-99.906 -260.117)"/><path class="b" d="M24.552,273.892l-2.357-2.357-16.3,16.3L2.357,284.3,0,286.657l9.432,9.429,2.357-2.357-3.538-3.537Z" transform="translate(0 -223.98)"/><path class="c" d="M47.153,305.512l2.357-2.357-3.538-3.537,16.3-16.3-1.179-1.179L42.437,300.8Z" transform="translate(-37.721 -233.406)"/><path class="b" d="M288.435,21.909l-2.357-2.357-9.69,9.692a12.943,12.943,0,0,0-8.5,3.761l-2.52,2.579,7.033,7.033L275,40.083a12.932,12.932,0,0,0,3.747-8.48Z" transform="translate(-235.88)"/><path class="c" d="M300.528,52.044l2.592-2.533a12.932,12.932,0,0,0,3.747-8.48l9.693-9.694-1.179-1.179L297.012,48.527Z" transform="translate(-264.005 -9.427)"/><g transform="translate(46.898 27.369)"><path class="d" d="M427,104.5a5.006,5.006,0,0,1-5-5c0-2.783,4.184-8.381,5-9.6.966,1.442,5,6.851,5,9.6A5.006,5.006,0,0,1,427,104.5Z" transform="translate(-422 -89.895)"/></g><g transform="translate(3.548 49.691)"><path class="b" d="M0,0H3.334V23.456H0Z" transform="translate(0 2.357) rotate(-45)"/></g><path class="e" d="M0,0H21.689V16.691H0Z" transform="translate(14.129 46.172) rotate(-45)"/><path class="c" d="M0,0H3.334V11.786H0Z" transform="translate(11.797 60.301) rotate(-45)"/><path class="d" d="M0,0H21.689V8.346H0Z" transform="translate(20.029 52.072) rotate(-45)"/></g></svg>