<svg xmlns="http://www.w3.org/2000/svg" width="50" height="50" viewBox="0 0 50 50"><defs><style>.a{fill:#fff;}</style></defs><g transform="translate(12.13 10.876)"><path class="a" d="M103.641,80.326H84.25a3.219,3.219,0,0,0-3.216,3.215v19.632a3.219,3.219,0,0,0,3.216,3.216h19.392a3.219,3.219,0,0,0,3.216-3.216V83.542A3.219,3.219,0,0,0,103.641,80.326Zm.169,22.847a.169.169,0,0,1-.169.169H84.25a.169.169,0,0,1-.169-.169V83.542a.169.169,0,0,1,.169-.169h19.392a.169.169,0,0,1,.169.169Z" transform="translate(-81.034 -80.326)"/><rect class="a" width="3.489" height="3.2" transform="translate(17.355 5.329)"/><ellipse class="a" cx="3.44" cy="3.44" rx="3.44" ry="3.44" transform="translate(9.472 10.881)"/><path class="a" d="M123.875,152.856a5.486,5.486,0,0,1-10.973,0l.007-2.445h-2.453v9.1h15.865v-9.1h-2.433Z" transform="translate(-105.477 -138.55)"/></g><path class="a" d="M50,25A25,25,0,1,0,25,50,25,25,0,0,0,50,25ZM2.273,25A22.727,22.727,0,1,1,25,47.727,22.727,22.727,0,0,1,2.273,25Z" transform="translate(0)"/></svg>