<svg xmlns="http://www.w3.org/2000/svg" width="50" height="50" viewBox="0 0 50 50"><defs><style>.a{fill:#fff;}</style></defs><g transform="translate(11.04 10.297)"><path class="a" d="M137.5,128l-1.111,4.322h-.111L135.116,128H133.3l2.3,7.167v3.016h1.32v-3.214L139.332,128Zm5.75,4.71a2.263,2.263,0,0,0-.547-1.559,1.5,1.5,0,0,0-1.267-.638,1.736,1.736,0,0,0-1.359.638,1.9,1.9,0,0,0-.621,1.51V136a2.159,2.159,0,0,0,.629,1.624,1.549,1.549,0,0,0,1.316.6c.723,0,.815-.195,1.234-.578a2.1,2.1,0,0,0,.614-1.607V132.71Zm5.093-2.19H147.07v5.1a7.355,7.355,0,0,1-.937,1.079.245.245,0,0,1-.244-.126.658.658,0,0,1-.1-.409V130.52h-1.279v6.194a2.474,2.474,0,0,0,.3,1.44,1.053,1.053,0,0,0,1.226-.174,3.974,3.974,0,0,0,1.038-1.311v1.357h1.277Zm7.665,15.415A5.173,5.173,0,0,0,150.9,140.7H133.117A5.175,5.175,0,0,0,128,145.935v4.847a5.177,5.177,0,0,0,5.117,5.23H150.9a5.175,5.175,0,0,0,5.116-5.23Zm-7.049,7.514a1.748,1.748,0,0,1-1.375-.556,2.145,2.145,0,0,1-.5-1.511v-3.009a3.568,3.568,0,0,1,.552-2,1.9,1.9,0,0,1,1.417-.549,1.78,1.78,0,0,1,1.366.5,3.92,3.92,0,0,1,.482,2.048v1.27h-2.483v1.694a1.484,1.484,0,0,0,.132.735.479.479,0,0,0,.441.205.515.515,0,0,0,.444-.174,1.463,1.463,0,0,0,.132-.766v-.3H150.9v.347a2.173,2.173,0,0,1-.486,1.549A1.927,1.927,0,0,1,148.963,153.449Zm.607-4.847v-.236a4.454,4.454,0,0,0-.137-1.192.5.5,0,0,0-.433-.183.516.516,0,0,0-.443.183,4.454,4.454,0,0,0-.137,1.192v.236Zm-4.96,4.864a1.52,1.52,0,0,1-.7-.159,1.728,1.728,0,0,1-.569-.472v.535h-1.346V143.264h1.267v3.055a2.561,2.561,0,0,1,.648-.487,1.292,1.292,0,0,1,.621-.168,1.136,1.136,0,0,1,.966.453,2.172,2.172,0,0,1,.332,1.3v4.507a1.819,1.819,0,0,1-.309,1.137A1.106,1.106,0,0,1,144.61,153.466Zm-.039-5.969a.943.943,0,0,0-.255-.537.513.513,0,0,0-.417-.176.636.636,0,0,0-.285.067,1.364,1.364,0,0,0-.354.21v4.98a1.423,1.423,0,0,0,.4.246.671.671,0,0,0,.32.079.427.427,0,0,0,.361-.152.78.78,0,0,0,.231-.479V147.5h0Zm-5.179,5.037a3.4,3.4,0,0,1-.769.718,1.513,1.513,0,0,1-.775.221.811.811,0,0,1-.7-.309,1.514,1.514,0,0,1-.274-.928v-6.394h1.291v5.923a.6.6,0,0,0,.084.354.336.336,0,0,0,.274.109.956.956,0,0,0,.451-.149,2.279,2.279,0,0,0,.492-.364v-5.873h1.257v7.612h-1.335v-.918Zm-3.755.911h-1.282v-8.909H133.1v-1.272h3.826v1.272h-1.292v8.909Zm5.726-16.6a.629.629,0,0,1-.486-.18.693.693,0,0,1-.173-.508V132.6a.538.538,0,0,1,.183-.422.681.681,0,0,1,.475-.164.571.571,0,0,1,.433.164.523.523,0,0,1,.2.422v3.551a.683.683,0,0,1-.191.508A.549.549,0,0,1,141.363,136.843Z" transform="translate(-128 -128)"/></g><path class="a" d="M50,25A25,25,0,1,0,25,50,25,25,0,0,0,50,25ZM2.273,25A22.727,22.727,0,1,1,25,47.727,22.727,22.727,0,0,1,2.273,25Z" transform="translate(0 0)"/></svg>